<svg width="40" height="40" viewBox="0 0 50 50" fill="none" xmlns="http://www.w3.org/2000/svg">
<path fill-rule="evenodd" clip-rule="evenodd" d="M7.25 22.9167C7.25 14.2642 14.2642 7.25 22.9167 7.25C31.5691 7.25 38.5833 14.2642 38.5833 22.9167C38.5833 27.1726 36.8863 31.0321 34.1321 33.8556C34.0785 33.8914 34.0275 33.933 33.9802 33.9804C33.9328 34.0277 33.8912 34.0786 33.8554 34.1322C31.032 36.8864 27.1725 38.5833 22.9167 38.5833C14.2642 38.5833 7.25 31.5691 7.25 22.9167ZM34.6818 36.0962C31.5577 38.8869 27.4353 40.5833 22.9167 40.5833C13.1596 40.5833 5.25 32.6737 5.25 22.9167C5.25 13.1596 13.1596 5.25 22.9167 5.25C32.6737 5.25 40.5833 13.1596 40.5833 22.9167C40.5833 27.4354 38.8868 31.5579 36.096 34.682L44.4569 43.0429C44.8474 43.4334 44.8474 44.0666 44.4569 44.4571C44.0664 44.8476 43.4332 44.8476 43.0427 44.4571L34.6818 36.0962Z" fill="#5941A9"/>
<path d="M34.1321 33.8556L34.6881 34.6867C34.7458 34.6481 34.7994 34.6036 34.8479 34.5538L34.1321 33.8556ZM33.8554 34.1322L34.5536 34.8481C34.6034 34.7996 34.6479 34.746 34.6865 34.6883L33.8554 34.1322ZM34.6818 36.0962L35.3889 35.3891C35.0138 35.014 34.4112 34.997 34.0156 35.3504L34.6818 36.0962ZM36.096 34.682L35.3502 34.0158C34.9969 34.4113 35.0138 35.014 35.3889 35.3891L36.096 34.682ZM44.4569 43.0429L45.164 42.3358L45.164 42.3358L44.4569 43.0429ZM44.4569 44.4571L45.164 45.1642L45.164 45.1642L44.4569 44.4571ZM43.0427 44.4571L42.3356 45.1642L42.3356 45.1642L43.0427 44.4571ZM22.9167 6.25C13.7119 6.25 6.25 13.7119 6.25 22.9167H8.25C8.25 14.8165 14.8165 8.25 22.9167 8.25V6.25ZM39.5833 22.9167C39.5833 13.7119 32.1214 6.25 22.9167 6.25V8.25C31.0168 8.25 37.5833 14.8165 37.5833 22.9167H39.5833ZM34.8479 34.5538C37.777 31.5512 39.5833 27.4439 39.5833 22.9167H37.5833C37.5833 26.9013 35.9957 30.5131 33.4162 33.1573L34.8479 34.5538ZM34.6873 34.6875C34.6882 34.6866 34.6885 34.6865 34.6881 34.6867L33.5761 33.0244C33.4684 33.0964 33.3669 33.1795 33.2731 33.2733L34.6873 34.6875ZM34.6865 34.6883C34.6863 34.6887 34.6864 34.6884 34.6873 34.6875L33.2731 33.2733C33.1793 33.3671 33.0962 33.4686 33.0242 33.5762L34.6865 34.6883ZM22.9167 39.5833C27.4438 39.5833 31.551 37.7771 34.5536 34.8481L33.1571 33.4164C30.5129 35.9958 26.9012 37.5833 22.9167 37.5833V39.5833ZM6.25 22.9167C6.25 32.1214 13.7119 39.5833 22.9167 39.5833V37.5833C14.8165 37.5833 8.25 31.0168 8.25 22.9167H6.25ZM34.0156 35.3504C31.0677 37.9837 27.1802 39.5833 22.9167 39.5833V41.5833C27.6904 41.5833 32.0478 39.79 35.348 36.842L34.0156 35.3504ZM22.9167 39.5833C13.7119 39.5833 6.25 32.1214 6.25 22.9167H4.25C4.25 33.226 12.6074 41.5833 22.9167 41.5833V39.5833ZM6.25 22.9167C6.25 13.7119 13.7119 6.25 22.9167 6.25V4.25C12.6074 4.25 4.25 12.6074 4.25 22.9167H6.25ZM22.9167 6.25C32.1214 6.25 39.5833 13.7119 39.5833 22.9167H41.5833C41.5833 12.6074 33.226 4.25 22.9167 4.25V6.25ZM39.5833 22.9167C39.5833 27.1803 37.9837 31.0679 35.3502 34.0158L36.8418 35.3482C39.79 32.0479 41.5833 27.6905 41.5833 22.9167H39.5833ZM35.3889 35.3891L43.7498 43.75L45.164 42.3358L36.8031 33.9749L35.3889 35.3891ZM43.7498 43.75V43.75L45.164 45.1642C45.9451 44.3832 45.9451 43.1168 45.164 42.3358L43.7498 43.75ZM43.7498 43.75H43.7498L42.3356 45.1642C43.1166 45.9452 44.383 45.9452 45.164 45.1642L43.7498 43.75ZM43.7498 43.75L35.3889 35.3891L33.9747 36.8033L42.3356 45.1642L43.7498 43.75Z" fill="#5941A9"/>
</svg>
