<svg width="50" height="50" viewBox="0 0 50 50" fill="none" xmlns="http://www.w3.org/2000/svg">
<path fill-rule="evenodd" clip-rule="evenodd" d="M25 4.16666C19.247 4.16666 14.5833 8.83036 14.5833 14.5833C14.5833 20.3363 19.247 25 25 25C30.753 25 35.4167 20.3363 35.4167 14.5833C35.4167 8.83036 30.753 4.16666 25 4.16666ZM18.75 14.5833C18.75 11.1315 21.5482 8.33332 25 8.33332C28.4518 8.33332 31.25 11.1315 31.25 14.5833C31.25 18.0351 28.4518 20.8333 25 20.8333C21.5482 20.8333 18.75 18.0351 18.75 14.5833Z" fill="#5941A9"/>
<path d="M16.6667 29.1667C13.904 29.1667 11.2545 30.2641 9.30097 32.2176C7.34747 34.1711 6.25 36.8207 6.25 39.5833V43.75C6.25 44.9006 7.18274 45.8333 8.33333 45.8333C9.48393 45.8333 10.4167 44.9006 10.4167 43.75V39.5833C10.4167 37.9257 11.0751 36.336 12.2472 35.1639C13.4194 33.9918 15.0091 33.3333 16.6667 33.3333H33.3333C34.9909 33.3333 36.5806 33.9918 37.7527 35.1639C38.9249 36.336 39.5833 37.9257 39.5833 39.5833V43.75C39.5833 44.9006 40.5161 45.8333 41.6667 45.8333C42.8173 45.8333 43.75 44.9006 43.75 43.75V39.5833C43.75 36.8206 42.6525 34.1711 40.699 32.2176C38.7455 30.2641 36.096 29.1667 33.3333 29.1667H16.6667Z" fill="#5941A9"/>
</svg>
