<svg width="40" height="40" viewBox="0 0 50 50" fill="none" xmlns="http://www.w3.org/2000/svg">
<path d="M4.16666 12.5C4.16666 11.3494 5.0994 10.4167 6.25 10.4167H43.75C44.9006 10.4167 45.8333 11.3494 45.8333 12.5C45.8333 13.6506 44.9006 14.5834 43.75 14.5834H6.25C5.0994 14.5834 4.16666 13.6506 4.16666 12.5Z" fill="#5941A9"/>
<path d="M4.16666 25C4.16666 23.8494 5.0994 22.9167 6.25 22.9167H43.75C44.9006 22.9167 45.8333 23.8494 45.8333 25C45.8333 26.1506 44.9006 27.0834 43.75 27.0834H6.25C5.0994 27.0834 4.16666 26.1506 4.16666 25Z" fill="#5941A9"/>
<path d="M6.25 35.4167C5.0994 35.4167 4.16666 36.3494 4.16666 37.5C4.16666 38.6506 5.0994 39.5834 6.25 39.5834H43.75C44.9006 39.5834 45.8333 38.6506 45.8333 37.5C45.8333 36.3494 44.9006 35.4167 43.75 35.4167H6.25Z" fill="#5941A9"/>
</svg>
