<svg width="50" height="50" viewBox="0 0 60 60" fill="none" xmlns="http://www.w3.org/2000/svg">
<g clip-path="url(#clip0_13_916)">
<path d="M8.74982 30.0011L29.9997 52.5L52.5 32.5C67.8958 15.6425 46.9594 -1.83426 30.0003 15C17.1639 0.0130615 -8.65127 13.3413 8.74982 30.0011Z" fill="#E5D4ED"/>
<path fill-rule="evenodd" clip-rule="evenodd" d="M26.283 13.4063C21.7344 8.85775 14.3598 8.85775 9.81124 13.4063C5.2627 17.9548 5.26271 25.3295 9.81125 29.878L11.7605 31.8273C11.7924 31.8591 11.8233 31.8918 11.8532 31.9251L30 50.0719L48.146 31.9259C48.1761 31.8924 48.2072 31.8595 48.2395 31.8273L50.1887 29.878C54.7373 25.3295 54.7373 17.9548 50.1887 13.4063C45.6402 8.85775 38.2656 8.85775 33.717 13.4063L31.7678 15.3556C30.7915 16.3319 29.2085 16.3319 28.2322 15.3556L26.283 13.4063ZM51.8711 35.2667C51.841 35.3002 51.8098 35.3331 51.7776 35.3654L31.7703 55.3726C31.3013 55.8416 30.6652 56.105 30.002 56.1049C30.0013 56.1049 30.0026 56.1049 30.002 56.1049C30.0013 56.1049 29.9987 56.1049 29.998 56.1049C29.3348 56.105 28.6986 55.8416 28.2297 55.3726L8.22241 35.3654C8.19016 35.3331 8.15899 35.3002 8.12887 35.2667L6.27571 33.4136C-0.225444 26.9124 -0.225454 16.3719 6.27571 9.87076C12.7769 3.3696 23.3173 3.3696 29.8185 9.87076L30 10.0523L30.1815 9.87076C36.6827 3.3696 47.2231 3.3696 53.7243 9.87076C60.2254 16.3719 60.2254 26.9124 53.7243 33.4136L51.8711 35.2667Z" fill="#5941A9"/>
</g>
<defs>
<clipPath id="clip0_13_916">
<rect width="60" height="60" rx="20" fill="none"/>
</clipPath>
</defs>
</svg>
